<svg xmlns="http://www.w3.org/2000/svg" xmlns:xlink="http://www.w3.org/1999/xlink" viewBox="0,0,256,256" width="50px" height="50px" fill-rule="nonzero"><g fill="#ffffff" fill-rule="nonzero" stroke="none" stroke-width="1" stroke-linecap="butt" stroke-linejoin="miter" stroke-miterlimit="10" stroke-dasharray="" stroke-dashoffset="0" font-family="none" font-weight="none" font-size="none" text-anchor="none" style="mix-blend-mode: normal"><g transform="scale(5.12,5.12)"><path d="M25,2c-12.69047,0 -23,10.30953 -23,23c0,12.69047 10.30953,23 23,23c12.69047,0 23,-10.30953 23,-23c0,-2.80468 -0.50455,-5.49478 -1.42578,-7.98242c-0.11982,-0.32305 -0.3975,-0.56168 -0.7349,-0.63154c-0.3374,-0.06986 -0.687,0.03888 -0.92526,0.28779c-0.84195,0.87999 -1.88842,1.55393 -3.06641,1.94336c-0.52044,0.17136 -0.8061,0.72961 -0.64062,1.25195c0.51298,1.62018 0.79297,3.34105 0.79297,5.13086c0,9.40055 -7.59945,17 -17,17c-9.40054,0 -17,-7.59945 -17,-17c0,-9.40054 7.59946,-17 17,-17c2.21549,0 4.32417,0.43595 6.26953,1.20898c0.50856,0.20143 1.08459,-0.04308 1.29297,-0.54883c0.47026,-1.14433 1.21586,-2.14927 2.1543,-2.92969c0.26477,-0.22025 0.39758,-0.56123 0.35154,-0.90254c-0.04604,-0.34131 -0.26445,-0.63492 -0.57811,-0.77715c-2.89322,-1.31282 -6.10708,-2.05078 -9.49023,-2.05078zM25,4c2.58136,0 5.00536,0.55998 7.28711,1.41211c-0.43806,0.51888 -0.80469,1.08446 -1.125,1.68945c-1.93774,-0.67071 -3.99308,-1.10156 -6.16211,-1.10156c-10.48145,0 -19,8.51855 -19,19c0,10.48145 8.51855,19 19,19c10.48145,0 19,-8.51855 19,-19c0,-1.6912 -0.33182,-3.29222 -0.74805,-4.85352c0.65187,-0.28453 1.26295,-0.6228 1.82813,-1.03906c0.55174,1.87773 0.91992,3.83352 0.91992,5.89258c0,11.60953 -9.39047,21 -21,21c-11.60953,0 -21,-9.39047 -21,-21c0,-11.60953 9.39047,-21 21,-21zM39.5,6c-3.02572,0 -5.5,2.47428 -5.5,5.5c0,3.02572 2.47428,5.5 5.5,5.5c3.02572,0 5.5,-2.47428 5.5,-5.5c0,-3.02572 -2.47428,-5.5 -5.5,-5.5zM39.5,8c1.94484,0 3.5,1.55516 3.5,3.5c0,1.94484 -1.55516,3.5 -3.5,3.5c-1.94484,0 -3.5,-1.55516 -3.5,-3.5c0,-1.94484 1.55516,-3.5 3.5,-3.5zM25,15c-5.511,0 -10,4.489 -10,10c0,5.511 4.489,10 10,10c5.511,0 10,-4.489 10,-10c0,-5.511 -4.489,-10 -10,-10zM25,17c4.43012,0 8,3.56988 8,8c0,4.43012 -3.56988,8 -8,8c-4.43012,0 -8,-3.56988 -8,-8c0,-4.43012 3.56988,-8 8,-8z"></path></g></g></svg>